<svg id="visual" viewBox="0 0 900 600" width="900" height="600" xmlns="http://www.w3.org/2000/svg" xmlns:xlink="http://www.w3.org/1999/xlink" version="1.1"><rect x="0" y="0" width="900" height="600" fill="#000000"></rect><path d="M0 390L129 444L257 403L386 415L514 407L643 391L771 356L900 439L900 601L771 601L643 601L514 601L386 601L257 601L129 601L0 601Z" fill="#f5730a"></path><path d="M0 409L129 393L257 395L386 435L514 413L643 431L771 446L900 406L900 601L771 601L643 601L514 601L386 601L257 601L129 601L0 601Z" fill="#c44805"></path><path d="M0 496L129 494L257 440L386 492L514 444L643 439L771 489L900 445L900 601L771 601L643 601L514 601L386 601L257 601L129 601L0 601Z" fill="#921e00"></path><path d="M0 506L129 532L257 521L386 520L514 539L643 536L771 498L900 486L900 601L771 601L643 601L514 601L386 601L257 601L129 601L0 601Z" fill="#640000"></path><path d="M0 532L129 570L257 567L386 562L514 547L643 556L771 544L900 570L900 601L771 601L643 601L514 601L386 601L257 601L129 601L0 601Z" fill="#000000"></path></svg>